<svg width="308" height="142" viewBox="0 0 308 142" fill="none" xmlns="http://www.w3.org/2000/svg">
<path fill-rule="evenodd" clip-rule="evenodd" d="M130.568 107.574V110.22C130.568 112.661 132.56 114.653 135.001 114.653H150.346C152.787 114.653 154.78 112.661 154.78 110.22V82.7943C154.78 80.3532 156.772 78.3604 159.213 78.3604H177.646C180.088 78.3604 182.08 80.3532 182.08 82.7943V110.22C182.08 112.661 184.073 114.653 186.514 114.653H238.226C240.667 114.653 242.66 112.661 242.66 110.22V98.8111C242.66 96.3699 240.667 94.3772 238.226 94.3772H210.801C208.36 94.3772 206.367 92.3844 206.367 89.9433V82.4954C206.367 80.0543 208.36 78.0615 210.801 78.0615H227.341C229.782 78.0615 231.775 76.0688 231.775 73.6276V62.2191C231.775 59.778 229.782 57.7852 227.341 57.7852H210.801C208.36 57.7852 206.367 55.7925 206.367 53.3514V47.8713C206.367 45.4302 208.36 43.4374 210.801 43.4374H233.319C235.76 43.4374 238.575 45.2558 239.596 47.4727L254.143 79.1077C255.164 81.3246 255.986 85.1358 255.986 87.552V110.195C255.986 112.636 257.979 114.629 260.42 114.629H275.765C278.206 114.629 280.198 112.636 280.198 110.195V87.552C280.198 85.1109 281.045 81.2997 282.042 79.1077L305.905 27.2214C306.926 25.0044 305.756 23.186 303.314 23.186H286.924C284.483 23.186 281.818 25.0542 281.02 27.3708L277.209 38.1566C276.939 38.9106 276.615 39.8236 276.271 40.7911C275.57 42.7642 274.788 44.9636 274.22 46.5013L270.035 58.5574C269.213 60.8491 268.441 62.7422 268.267 62.7422C268.092 62.7422 267.345 60.8491 266.548 58.5574L262.513 46.5511C261.716 44.2345 260.42 40.4732 259.598 38.1815L255.787 27.3957C254.965 25.1041 252.325 23.2109 249.884 23.2109H186.514C184.073 23.2109 182.08 25.2037 182.08 27.6448V52.8283C182.08 55.2694 180.088 57.2621 177.646 57.2621H159.213C156.772 57.2621 154.78 55.2694 154.78 52.8283V27.6448C154.78 25.2037 152.787 23.2109 150.346 23.2109H135.001C133.048 23.2109 131.382 24.4866 130.794 26.2468L140.43 87.054C141.771 95.5137 137.597 103.574 130.568 107.574Z" fill="url(#paint0_linear_110_69)" style=""/>
<defs>
<linearGradient id="paint0_linear_110_69" x1="131" y1="23" x2="306" y2="115" gradientUnits="userSpaceOnUse">
<stop stop-color="#0074E4" style="stop-color:#0074E4;stop-color:color(display-p3 0.0000 0.4549 0.8941);stop-opacity:1;"/>
<stop offset="1" stop-color="#5522FA" style="stop-color:#5522FA;stop-color:color(display-p3 0.3333 0.1333 0.9804);stop-opacity:1;"/>
</linearGradient>
</defs>
</svg>
