<svg width="126" height="104" viewBox="0 0 126 104" fill="none" xmlns="http://www.w3.org/2000/svg">
<path d="M29.0056 103.605C17.829 105.375 11.1364 100.627 9.39065 89.6048L0.37636 32.6908C-1.36939 21.6686 3.52035 15.0335 13.4033 13.4682L96.1894 0.356207C107.366 -1.41399 114.075 3.43679 115.812 14.4075L124.827 71.3215C126.564 82.2923 121.726 88.9191 111.843 90.4844L29.0056 103.605ZM57.3304 54.7154C59.8381 56.4829 61.8477 57.115 63.7622 56.8118C65.6767 56.5085 67.4008 55.3379 69.2314 52.8304L101.122 9.71212C100.262 9.63722 99.3658 9.67353 98.3309 9.83744L16.2143 22.8434C15.2829 22.991 14.4196 23.2333 13.6679 23.5107L57.3304 54.7154ZM9.99503 31.801L18.7891 87.3243L42.6276 54.985L9.99503 31.801ZM83.2979 48.5434L115.843 71.8468L107.09 16.581L83.2979 48.5434ZM27.4964 94.0761L109.613 81.0701C110.648 80.9062 111.563 80.6556 112.35 80.267L78.0077 55.6643L75.6105 58.9478C72.4642 63.1948 69.0351 65.3218 65.2061 65.9283C61.3771 66.5348 57.4586 65.5714 53.1539 62.5046L49.8593 60.1225L24.7568 94.1932C25.6173 94.2681 26.5133 94.2318 27.4964 94.0761Z" fill="black" style="fill:black;fill-opacity:1;"/>
</svg>
